<svg width="414" height="207" viewBox="0 0 414 207" fill="url(#gradient)" xmlns="http://www.w3.org/2000/svg">
<defs>
<linearGradient id="gradient" gradientTransform="rotate(180)">
  <stop offset="50%" stop-color="#ECECEC" />
  <stop offset="100%" stop-color="#FFFFFF" />
</linearGradient>
</defs>
<g>
<path d="M207 -207C313.525 -207 401.396 -127.727 414 -25.3742H312.97C301.466 -72.8751 258.386 -108.174 207 -108.174C155.614 -108.174 112.534 -72.8751 101.03 -25.3742H0C12.604 -127.727 100.475 -207 207 -207Z" />
<path d="M312.97 25.3742H414C401.396 127.727 313.525 207 207 207C100.475 207 12.604 127.727 0 25.3742H101.03C112.534 72.8751 155.614 108.174 207 108.174C258.386 108.174 301.466 72.8751 312.97 25.3742Z" />
<path d="M207 68.1097C244.898 68.1097 275.62 37.6159 275.62 -7.15256e-07C275.62 -37.6159 244.898 -68.1097 207 -68.1097C169.102 -68.1097 138.38 -37.6159 138.38 -7.15256e-07C138.38 37.6159 169.102 68.1097 207 68.1097Z" />
</g>
</svg>
